<svg xmlns="http://www.w3.org/2000/svg" xmlns:xlink="http://www.w3.org/1999/xlink" version="1.1" width="256" height="256" viewBox="0 0 256 256" xml:space="preserve">

<defs>
</defs>
<g style="stroke: none; stroke-width: 0; stroke-dasharray: none; stroke-linecap: butt; stroke-linejoin: miter; stroke-miterlimit: 10; fill: none; fill-rule: nonzero; opacity: 1;" transform="translate(1.4065934065934016 1.4065934065934016) scale(2.81 2.81)" >
	<path d="M 75.185 37.346 H 14.815 c -0.39 0 -0.745 -0.227 -0.908 -0.581 c -0.163 -0.355 -0.105 -0.772 0.147 -1.069 L 44.239 0.342 c 0.381 -0.445 1.141 -0.445 1.522 0 l 30.185 35.354 c 0.253 0.297 0.311 0.714 0.147 1.069 C 75.931 37.119 75.576 37.346 75.185 37.346 z" style="stroke: none; stroke-width: 1; stroke-dasharray: none; stroke-linecap: butt; stroke-linejoin: miter; stroke-miterlimit: 10; fill: rgb(0,0,0); fill-rule: nonzero; opacity: 1;" transform=" matrix(1 0 0 1 0 0) " stroke-linecap="round" />
	<path d="M 45 90.008 c -0.293 0 -0.57 -0.128 -0.761 -0.351 L 14.054 54.303 c -0.253 -0.297 -0.311 -0.714 -0.147 -1.069 c 0.164 -0.355 0.518 -0.581 0.908 -0.581 h 60.371 c 0.391 0 0.745 0.227 0.908 0.581 s 0.105 0.772 -0.147 1.069 L 45.761 89.658 C 45.57 89.88 45.293 90.008 45 90.008 z" style="stroke: none; stroke-width: 1; stroke-dasharray: none; stroke-linecap: butt; stroke-linejoin: miter; stroke-miterlimit: 10; fill: rgb(0,0,0); fill-rule: nonzero; opacity: 1;" transform=" matrix(1 0 0 1 0 0) " stroke-linecap="round" />
</g>
</svg>